<svg width="41" height="55" viewBox="0 0 41 55" fill="none" xmlns="http://www.w3.org/2000/svg">
<path fill-rule="evenodd" clip-rule="evenodd" d="M32.102 23.0684H6.75846V52.2738H32.102V23.0684ZM4.34479 20.6547V54.6875H34.5157V20.6547H4.34479Z" fill="#870D0D"/>
<path fill-rule="evenodd" clip-rule="evenodd" d="M25.5531 8.52712L16.1703 6.25188L15.6015 8.59757L24.9842 10.8728L25.5531 8.52712ZM14.3934 3.33737L12.687 10.3745L26.7611 13.7873L28.4676 6.75024L14.3934 3.33737Z" fill="#870D0D"/>
<path fill-rule="evenodd" clip-rule="evenodd" d="M1.52728 5.18471L39.0584 14.2857L38.4896 16.6314L0.95847 7.5304L1.52728 5.18471Z" fill="#870D0D"/>
<path fill-rule="evenodd" clip-rule="evenodd" d="M12.3099 46.9637L12.3099 29.1025L14.7235 29.1025L14.7235 46.9637L12.3099 46.9637Z" fill="#870D0D"/>
<path fill-rule="evenodd" clip-rule="evenodd" d="M24.3783 46.9637L24.3783 29.1025L26.7919 29.1025L26.7919 46.9637L24.3783 46.9637Z" fill="#870D0D"/>
</svg>
